<svg width="320" height="80" viewBox="0 0 320 80" fill="none" xmlns="http://www.w3.org/2000/svg">
  <defs>
    <linearGradient id="grad" x1="0" y1="0" x2="80" y2="80" gradientUnits="userSpaceOnUse">
      <stop offset="0%" stop-color="#6c63ff"/>
      <stop offset="100%" stop-color="#48cfad"/>
    </linearGradient>
    <linearGradient id="grad-door" x1="0" y1="0" x2="80" y2="80" gradientUnits="userSpaceOnUse">
      <stop offset="0%" stop-color="#5248d4"/>
      <stop offset="100%" stop-color="#35a889"/>
    </linearGradient>
    <linearGradient id="text-grad" x1="90" y1="0" x2="320" y2="0" gradientUnits="userSpaceOnUse">
      <stop offset="0%" stop-color="#6c63ff"/>
      <stop offset="100%" stop-color="#48cfad"/>
    </linearGradient>
  </defs>

  <!-- Icon mark (80x80) -->
  <rect width="80" height="80" rx="18" fill="url(#grad)"/>
  <path d="M 15 39 Q 24 15 40 11 Q 56 15 65 39 V 61 H 15 Z" fill="white"/>
  <path d="M 35 61 V 51 A 5 5 0 0 1 45 51 V 61 Z" fill="url(#grad-door)" opacity="0.5"/>
  <rect x="19" y="43" width="11" height="9" rx="2.5" fill="url(#grad-door)" opacity="0.4"/>
  <rect x="50" y="43" width="11" height="9" rx="2.5" fill="url(#grad-door)" opacity="0.4"/>
  <path d="M 15 68 Q 27.5 62 40 68 Q 52.5 74 65 68"
    stroke="white" stroke-width="2.5" stroke-linecap="round" fill="none" opacity="0.8"/>

  <!-- Wordmark: "Home" -->
  <text
    x="96"
    y="52"
    font-family="Georgia, 'DM Serif Display', serif"
    font-size="36"
    font-weight="400"
    fill="url(#text-grad)"
    letter-spacing="-0.5"
  >Home</text>

  <!-- Wordmark: "Flow" (slightly lighter weight visually) -->
  <text
    x="210"
    y="52"
    font-family="Georgia, 'DM Serif Display', serif"
    font-size="36"
    font-weight="400"
    fill="url(#text-grad)"
    fill-opacity="0.75"
    letter-spacing="-0.5"
  >Flow</text>
</svg>
